<svg width="216" height="203" viewBox="0 0 216 203" fill="none" xmlns="http://www.w3.org/2000/svg">
<rect width="216" height="203" rx="39" fill="#FF6B00"/>
<path d="M107.361 138.164C101.929 138.164 96.7233 137.453 91.744 136.03C86.7647 134.543 82.7553 132.635 79.716 130.307L85.051 118.473C87.961 120.542 91.3883 122.256 95.333 123.614C99.3423 124.907 103.384 125.554 107.458 125.554C110.562 125.554 113.052 125.263 114.927 124.681C116.867 124.034 118.29 123.161 119.195 122.062C120.1 120.963 120.553 119.702 120.553 118.279C120.553 116.468 119.842 115.046 118.419 114.011C116.996 112.912 115.121 112.039 112.793 111.392C110.465 110.681 107.878 110.034 105.033 109.452C102.252 108.805 99.4393 108.029 96.594 107.124C93.8133 106.219 91.259 105.055 88.931 103.632C86.603 102.209 84.6953 100.334 83.208 98.006C81.7853 95.678 81.074 92.7033 81.074 89.082C81.074 85.202 82.1087 81.6777 84.178 78.509C86.312 75.2757 89.4807 72.7213 93.684 70.846C97.952 68.906 103.287 67.936 109.689 67.936C113.957 67.936 118.16 68.4533 122.299 69.488C126.438 70.458 130.091 71.9453 133.26 73.95L128.41 85.881C125.241 84.0703 122.073 82.7447 118.904 81.904C115.735 80.9987 112.631 80.546 109.592 80.546C106.553 80.546 104.063 80.9017 102.123 81.613C100.183 82.3243 98.7927 83.262 97.952 84.426C97.1113 85.5253 96.691 86.8187 96.691 88.306C96.691 90.052 97.4023 91.4747 98.825 92.574C100.248 93.6087 102.123 94.4493 104.451 95.096C106.779 95.7427 109.333 96.3893 112.114 97.036C114.959 97.6827 117.772 98.4263 120.553 99.267C123.398 100.108 125.985 101.239 128.313 102.662C130.641 104.085 132.516 105.96 133.939 108.288C135.426 110.616 136.17 113.558 136.17 117.115C136.17 120.93 135.103 124.422 132.969 127.591C130.835 130.76 127.634 133.314 123.366 135.254C119.163 137.194 113.828 138.164 107.361 138.164Z" fill="white"/>
</svg>
